<svg width="60" height="60" xmlns="http://www.w3.org/2000/svg">
 <title/>

 <g>
  <title>background</title>
  <rect fill="none" id="canvas_background" height="402" width="582" y="-1" x="-1"/>
 </g>
 <g>
  <title>Layer 1</title>
  <path id="svg_1" fill="#bf322a" d="m30,60c16.56854,0 30,-13.43146 30,-30c0,-16.56854 -13.43146,-30 -30,-30c-16.56854,0 -30,13.43146 -30,30c0,16.56854 13.43146,30 30,30z"/>
  <path id="svg_2"  d="m38.67615,41.53774c-0.21685,-0.00636 -0.43302,-0.07069 -0.62902,-0.19438c-0.00209,0 -0.253,-0.16187 -0.76803,-0.44249c-0.51573,-0.28133 -1.27543,-0.66868 -2.22209,-1.07512c-1.89124,-0.81853 -4.5387,-1.72471 -7.49754,-2.07248c-0.90843,-0.10603 -1.78281,-0.17106 -2.61896,-0.19863c-3.76024,-0.12582 -6.7156,0.4432 -7.92013,0.72452c-0.40313,0.09401 -0.58871,0.15127 -0.5894,0.15127c-0.67073,0.20004 -1.37274,-0.19226 -1.57013,-0.87367c-0.19531,-0.68281 0.18836,-1.39815 0.85839,-1.59748c0.08549,-0.02474 3.89786,-1.15499 9.3012,-0.97757c0.90079,0.0311 1.84815,0.09966 2.82678,0.21488c6.56478,0.78107 11.451,3.91595 11.54136,3.96331c0.59358,0.37816 0.7729,1.17266 0.40174,1.77419c-0.24605,0.40432 -0.67767,0.61849 -1.11417,0.60365zm4.60264,-7.59086c-0.30999,0.50257 -0.84796,0.77259 -1.39358,0.7535c-0.27107,-0.00919 -0.54144,-0.08977 -0.7861,-0.24527c-0.00139,0.00212 -0.057,-0.03676 -0.20643,-0.12512c-0.15083,-0.08906 -0.37742,-0.21983 -0.67212,-0.38028c-0.59358,-0.32374 -1.46378,-0.76905 -2.55432,-1.23911c-2.17552,-0.94082 -5.22054,-1.97988 -8.62213,-2.37855c-1.04119,-0.12299 -2.04833,-0.19579 -3.01098,-0.2276c-4.3267,-0.14561 -7.7276,0.50822 -9.11006,0.83196c-0.46151,0.10885 -0.67072,0.17106 -0.67211,0.17318c-0.83754,0.24739 -1.71748,-0.24175 -1.96214,-1.09491c-0.24605,-0.85388 0.23423,-1.74804 1.07386,-1.99403c0.10634,-0.03322 4.51854,-1.34018 10.77263,-1.13237c1.04258,0.03464 2.13659,0.11239 3.27022,0.24669c7.60666,0.90618 13.26162,4.5302 13.37422,4.59452c0.73884,0.47359 0.96403,1.4653 0.49904,2.21739zm3.73939,-7.08334c-0.37324,0.60365 -1.02103,0.92598 -1.67369,0.90406c-0.3232,-0.0106 -0.64918,-0.10602 -0.94179,-0.29405c0,0 -0.06812,-0.04382 -0.24466,-0.14914c-0.17516,-0.1032 -0.44136,-0.258 -0.79167,-0.44885c-0.69783,-0.37817 -1.72443,-0.90194 -3.00888,-1.45753c-2.56475,-1.10763 -6.15192,-2.33401 -10.15751,-2.80407c-1.22886,-0.14419 -2.4167,-0.22902 -3.54964,-0.26577c-5.94757,-0.20216 -10.40981,0.87861 -11.34605,1.13096c-0.13345,0.03534 -0.18071,0.04948 -0.18071,0.04948c-1.00574,0.29899 -2.05944,-0.28911 -2.35415,-1.31121c-0.2947,-1.02352 0.28081,-2.09722 1.28863,-2.39622c0.12789,-0.03534 5.33523,-1.5791 12.716,-1.33312c1.23094,0.04029 2.52096,0.13077 3.85894,0.2891c8.98147,1.07088 15.64912,5.34661 15.78465,5.42366c0.88759,0.56548 1.15657,1.75935 0.60053,2.6627z"/>
 </g>
</svg>